<?xml version="1.0" encoding="UTF-8"?>
<svg xmlns="http://www.w3.org/2000/svg" xmlns:xlink="http://www.w3.org/1999/xlink" width="51" height="51" viewBox="0 0 51 51">
  <defs>
    <clipPath id="clip-path">
      <path id="Path_4375" data-name="Path 4375" d="M0-682.665H51v51H0Z" transform="translate(0 682.665)" fill="#666"></path>
    </clipPath>
  </defs>
  <g id="svgexport-17_33_" data-name="svgexport-17 (33)" transform="translate(0 -0.002)">
    <g id="Group_2692" data-name="Group 2692" transform="translate(0 0.002)" clip-path="url(#clip-path)">
      <path id="Path_4364" data-name="Path 4364" d="M-134.328-81.284a1,1,0,0,1,.125.008l15.67,1.981a1,1,0,0,1,.859.832,1,1,0,0,1-.558,1.057l-5.276,2.491,6.588,6.588a1,1,0,0,1,0,1.409l-4.006,4.007a1,1,0,0,1-.7.292,1,1,0,0,1-.7-.292l-6.591-6.591-2.52,5.311a1,1,0,0,1-1.057.557,1,1,0,0,1-.831-.859l-1.981-15.67a1,1,0,0,1,.284-.829A1,1,0,0,1-134.328-81.284Zm12.152,3.537-11-1.391,1.393,11.015,1.665-3.509a1,1,0,0,1,.73-.555,1,1,0,0,1,.874.277l6.885,6.885,2.6-2.6-6.885-6.885a1,1,0,0,1-.277-.875,1,1,0,0,1,.556-.73Z" transform="translate(159.27 113.62)" fill="#666"></path>
      <path id="Path_4365" data-name="Path 4365" d="M-167.691-286.161h-4.683a1,1,0,0,1-.7-.292l-3.991-3.991a1,1,0,0,1-.277-.875,1,1,0,0,1,.556-.73l3.464-1.635-11-1.391.986,7.793a1,1,0,0,1-.241.784,1,1,0,0,1-.747.337h-6.54a1,1,0,0,1-1-1,1,1,0,0,1,1-1h5.41l-1.005-7.946a1,1,0,0,1,.284-.829,1,1,0,0,1,.829-.284l15.67,1.981a1,1,0,0,1,.859.832,1,1,0,0,1-.558,1.057l-5.277,2.491,2.7,2.7h4.27a2.142,2.142,0,0,0,2.14-2.14V-306.21a2.142,2.142,0,0,0-2.14-2.14h-34.46a2.142,2.142,0,0,0-2.14,2.14v15.916a2.126,2.126,0,0,0,.627,1.513,2.126,2.126,0,0,0,1.513.627h2.552a1,1,0,0,1,1,1,1,1,0,0,1-1,1h-2.552a4.105,4.105,0,0,1-2.922-1.21,4.105,4.105,0,0,1-1.21-2.922V-306.21a4.137,4.137,0,0,1,4.132-4.132h34.46a4.137,4.137,0,0,1,4.132,4.132v15.916A4.137,4.137,0,0,1-167.691-286.161Z" transform="translate(210.421 329.556)" fill="#666"></path>
      <path id="Path_4366" data-name="Path 4366" d="M-12.337-47.047a1,1,0,0,1-1-1v-2.883a1,1,0,0,1,1-1,1,1,0,0,1,1,1v2.883A1,1,0,0,1-12.337-47.047Z" transform="translate(38.3 76.165)" fill="#666"></path>
      <path id="Path_4367" data-name="Path 4367" d="M-49.577-11.341h-3.007a1,1,0,0,1-1-1,1,1,0,0,1,1-1h3.007a1,1,0,0,1,1,1A1,1,0,0,1-49.577-11.341Z" transform="translate(70.155 47.929)" fill="#666"></path>
      <path id="Path_4368" data-name="Path 4368" d="M-42.092-36.7a.992.992,0,0,1-.646-.238l-2.4-2.047a1,1,0,0,1-.112-1.4,1,1,0,0,1,1.4-.112l2.4,2.047a1,1,0,0,1,.112,1.4A.994.994,0,0,1-42.092-36.7Z" transform="translate(63.642 67.969)" fill="#666"></path>
      <path id="Path_4369" data-name="Path 4369" d="M-104.489.237H-116.1a1,1,0,0,1-.757-.349,8.577,8.577,0,0,1-1.094-1.622,1,1,0,0,1,.119-1.1,9.183,9.183,0,0,0,1.835-3.649,9.769,9.769,0,0,0,.028-4.982,1,1,0,0,1,.35-1.027,8.529,8.529,0,0,1,5.321-1.838,8.716,8.716,0,0,1,1.191.084,1,1,0,0,1,.85,1.123,1,1,0,0,1-1.123.85,6.717,6.717,0,0,0-.917-.065,6.552,6.552,0,0,0-3.591,1.055,11.65,11.65,0,0,1-.182,5.3,11.168,11.168,0,0,1-1.8,3.863q.118.182.247.356h10.651a6.63,6.63,0,0,0,1.3-3.95,6.643,6.643,0,0,0-.238-1.759,1,1,0,0,1,.7-1.224,1,1,0,0,1,1.224.7,8.636,8.636,0,0,1,.309,2.287,8.621,8.621,0,0,1-2.06,5.592A1,1,0,0,1-104.489.237Z" transform="translate(145.003 20.97)" fill="#666"></path>
      <path id="Path_4370" data-name="Path 4370" d="M-287.3-138.676h-14.352a1,1,0,0,1-.652-.243,11.926,11.926,0,0,1-4.116-9.019,11.984,11.984,0,0,1,7.853-11.225,11.907,11.907,0,0,1,4.092-.719,12,12,0,0,1,11.177,7.728,11.9,11.9,0,0,1,.766,4.216,12.076,12.076,0,0,1-4.116,9.02A1,1,0,0,1-287.3-138.676Zm-13.969-1.992h13.588a10.071,10.071,0,0,0,3.158-7.27,9.918,9.918,0,0,0-.638-3.513,10,10,0,0,0-9.313-6.439,9.921,9.921,0,0,0-3.409.6,10.116,10.116,0,0,0-6.543,9.353A10.08,10.08,0,0,0-301.266-140.668Z" transform="translate(313.859 159.882)" fill="#666"></path>
      <path id="Path_4373" data-name="Path 4373" transform="translate(15.27 42.399)" fill="#666"></path>
      <path id="Path_4374" data-name="Path 4374" transform="translate(39.814 9.6)" fill="#666"></path>
    </g>
    <path id="Path_4376" data-name="Path 4376" d="M1.56-14.28v8.5H2.691V-9.41H5.454a1.5,1.5,0,0,1,.667.125,1.116,1.116,0,0,1,.4.333,1.382,1.382,0,0,1,.226.488q.071.28.119.589a4.151,4.151,0,0,1,.071.631q.012.322.024.6a3.67,3.67,0,0,0,.054.506.71.71,0,0,0,.161.357H8.443a1.453,1.453,0,0,1-.268-.494,3.873,3.873,0,0,1-.137-.589,5.482,5.482,0,0,1-.06-.631q-.012-.322-.036-.631a5.473,5.473,0,0,0-.1-.6,1.807,1.807,0,0,0-.2-.518,1.305,1.305,0,0,0-.369-.4,1.515,1.515,0,0,0-.6-.238V-9.9a1.808,1.808,0,0,0,1.125-.8,2.581,2.581,0,0,0,.351-1.358,2.049,2.049,0,0,0-.685-1.631,2.8,2.8,0,0,0-1.9-.6Zm3.489,3.918H2.691v-2.965H5.5a1.468,1.468,0,0,1,1.155.4,1.525,1.525,0,0,1,.357,1.048,1.56,1.56,0,0,1-.161.756,1.272,1.272,0,0,1-.429.464,1.637,1.637,0,0,1-.625.232A4.56,4.56,0,0,1,5.049-10.362Zm5.12,2.644H9.157a2.228,2.228,0,0,0,.238.971,1.791,1.791,0,0,0,.572.643,2.4,2.4,0,0,0,.822.351,4.331,4.331,0,0,0,.976.107,5,5,0,0,0,.935-.089,2.539,2.539,0,0,0,.845-.316,1.815,1.815,0,0,0,.607-.6,1.715,1.715,0,0,0,.232-.929,1.452,1.452,0,0,0-.173-.738,1.541,1.541,0,0,0-.453-.494,2.427,2.427,0,0,0-.643-.316,7.6,7.6,0,0,0-.744-.2q-.357-.083-.714-.161a4.122,4.122,0,0,1-.643-.191,1.473,1.473,0,0,1-.47-.286.57.57,0,0,1-.185-.435.6.6,0,0,1,.119-.387.851.851,0,0,1,.31-.238,1.544,1.544,0,0,1,.423-.125,3.012,3.012,0,0,1,.458-.036,2.3,2.3,0,0,1,.494.054,1.515,1.515,0,0,1,.447.173,1.014,1.014,0,0,1,.333.316,1.025,1.025,0,0,1,.155.494h1.012a2.261,2.261,0,0,0-.238-.935,1.6,1.6,0,0,0-.542-.6,2.232,2.232,0,0,0-.78-.31,4.861,4.861,0,0,0-.965-.089,3.4,3.4,0,0,0-.816.1,2.46,2.46,0,0,0-.738.31,1.7,1.7,0,0,0-.536.542,1.475,1.475,0,0,0-.208.8,1.346,1.346,0,0,0,.3.929,2.009,2.009,0,0,0,.744.518,5.036,5.036,0,0,0,.971.286q.524.1.971.226a2.533,2.533,0,0,1,.744.327.674.674,0,0,1,.3.6.746.746,0,0,1-.143.47.906.906,0,0,1-.363.28,1.834,1.834,0,0,1-.482.131,3.706,3.706,0,0,1-.5.036,3,3,0,0,1-.6-.06,1.687,1.687,0,0,1-.524-.2,1.077,1.077,0,0,1-.375-.369A1.139,1.139,0,0,1,10.17-7.719Z" transform="translate(11.357 21.119)" fill="#707070"></path>
    <path id="Path_4376_-_Outline" data-name="Path 4376 - Outline" d="M1.31-14.53H5.561a3.051,3.051,0,0,1,2.063.657,2.3,2.3,0,0,1,.771,1.82,2.838,2.838,0,0,1-.387,1.486,1.894,1.894,0,0,1-.684.667q.048.029.092.06a1.559,1.559,0,0,1,.439.475,2.065,2.065,0,0,1,.231.589,5.749,5.749,0,0,1,.106.623v.009c.016.209.028.425.036.641a5.256,5.256,0,0,0,.057.6,3.642,3.642,0,0,0,.128.551,1.212,1.212,0,0,0,.222.41l.342.41H7.07L7-5.609a.957.957,0,0,1-.222-.48,3.935,3.935,0,0,1-.057-.541q-.012-.28-.024-.6a3.919,3.919,0,0,0-.067-.593l0-.009c-.03-.2-.069-.388-.114-.566a1.141,1.141,0,0,0-.185-.4.862.862,0,0,0-.316-.259,1.272,1.272,0,0,0-.555-.1H2.941v3.632H1.31ZM7.694-8.1a5.246,5.246,0,0,0-.1-.564,1.566,1.566,0,0,0-.174-.447,1.063,1.063,0,0,0-.3-.323,1.278,1.278,0,0,0-.5-.2l-.2-.039v-.42l.183-.051a1.555,1.555,0,0,0,.978-.686A2.347,2.347,0,0,0,7.9-12.053,1.8,1.8,0,0,0,7.3-13.5a2.574,2.574,0,0,0-1.735-.534H1.81v8h.631V-9.66H5.454a1.725,1.725,0,0,1,.779.151,1.369,1.369,0,0,1,.494.408,1.637,1.637,0,0,1,.268.575c.049.192.091.4.123.609a4.422,4.422,0,0,1,.075.665q.012.321.024.6a3.439,3.439,0,0,0,.05.471.621.621,0,0,0,.047.153H8q-.035-.082-.063-.168a4.14,4.14,0,0,1-.146-.627,5.758,5.758,0,0,1-.062-.66C7.721-7.691,7.709-7.9,7.694-8.1ZM2.441-13.577H5.5a1.707,1.707,0,0,1,1.343.489,1.774,1.774,0,0,1,.42,1.213A1.809,1.809,0,0,1,7.072-11a1.525,1.525,0,0,1-.512.554,1.892,1.892,0,0,1-.72.269,4.833,4.833,0,0,1-.791.063H2.441Zm2.608,2.965a4.331,4.331,0,0,0,.709-.056,1.4,1.4,0,0,0,.531-.2,1.016,1.016,0,0,0,.345-.375,1.327,1.327,0,0,0,.13-.636,1.274,1.274,0,0,0-.295-.883,1.245,1.245,0,0,0-.968-.32H2.941v2.465Zm6.538-1.715a5.134,5.134,0,0,1,1.014.094,2.49,2.49,0,0,1,.866.345,1.857,1.857,0,0,1,.626.686,2.516,2.516,0,0,1,.268,1.038l.017.266H12.868l-.018-.23a.786.786,0,0,0-.114-.375.76.76,0,0,0-.252-.239,1.273,1.273,0,0,0-.373-.144,2.338,2.338,0,0,0-.861-.015,1.3,1.3,0,0,0-.355.1.6.6,0,0,0-.221.168.359.359,0,0,0-.064.231.319.319,0,0,0,.105.252,1.233,1.233,0,0,0,.392.236,3.891,3.891,0,0,0,.6.179c.238.052.48.106.718.162a7.862,7.862,0,0,1,.765.208,2.688,2.688,0,0,1,.709.349,1.8,1.8,0,0,1,.525.573,1.7,1.7,0,0,1,.206.864,1.966,1.966,0,0,1-.271,1.062,2.071,2.071,0,0,1-.69.676,2.8,2.8,0,0,1-.928.347,4.964,4.964,0,0,1-2.014-.02A2.655,2.655,0,0,1,9.826-5.9a2.047,2.047,0,0,1-.651-.731,2.484,2.484,0,0,1-.268-1.078L8.9-7.969h1.514l.009.241a.9.9,0,0,0,.118.444A.823.823,0,0,0,10.826-7a1.446,1.446,0,0,0,.447.167,2.764,2.764,0,0,0,.551.054,3.474,3.474,0,0,0,.466-.033,1.593,1.593,0,0,0,.417-.113.654.654,0,0,0,.265-.2.5.5,0,0,0,.091-.317.424.424,0,0,0-.188-.389,2.3,2.3,0,0,0-.671-.293c-.29-.081-.61-.156-.951-.222a5.309,5.309,0,0,1-1.019-.3A2.266,2.266,0,0,1,9.4-9.231a1.591,1.591,0,0,1-.361-1.1,1.727,1.727,0,0,1,.246-.93,1.96,1.96,0,0,1,.614-.62,2.721,2.721,0,0,1,.813-.341A3.666,3.666,0,0,1,11.587-12.327ZM13.833-10.4a1.778,1.778,0,0,0-.18-.566,1.344,1.344,0,0,0-.458-.5,1.993,1.993,0,0,0-.694-.274,4.635,4.635,0,0,0-.915-.084,3.165,3.165,0,0,0-.756.094,2.222,2.222,0,0,0-.664.278,1.464,1.464,0,0,0-.458.463,1.237,1.237,0,0,0-.17.665,1.114,1.114,0,0,0,.234.762,1.771,1.771,0,0,0,.653.453,4.81,4.81,0,0,0,.922.271c.354.068.688.146.99.231a2.792,2.792,0,0,1,.817.361.925.925,0,0,1,.407.8.992.992,0,0,1-.2.623,1.157,1.157,0,0,1-.462.356,2.092,2.092,0,0,1-.548.149,3.975,3.975,0,0,1-.534.038,3.265,3.265,0,0,1-.651-.065,1.944,1.944,0,0,1-.6-.226,1.33,1.33,0,0,1-.461-.453,1.282,1.282,0,0,1-.166-.447H9.43a1.79,1.79,0,0,0,.186.6,1.552,1.552,0,0,0,.492.555A2.158,2.158,0,0,0,10.845-6a4.464,4.464,0,0,0,1.808.016,2.3,2.3,0,0,0,.763-.284,1.575,1.575,0,0,0,.525-.514,1.48,1.48,0,0,0,.194-.8A1.215,1.215,0,0,0,14-8.189a1.3,1.3,0,0,0-.38-.415,2.189,2.189,0,0,0-.577-.283,7.381,7.381,0,0,0-.72-.2c-.239-.056-.478-.11-.714-.161a4.39,4.39,0,0,1-.682-.2,1.728,1.728,0,0,1-.549-.336.824.824,0,0,1-.264-.617.846.846,0,0,1,.174-.543,1.1,1.1,0,0,1,.4-.308,1.8,1.8,0,0,1,.491-.146,2.838,2.838,0,0,1,1.044.021,1.771,1.771,0,0,1,.52.2,1.266,1.266,0,0,1,.415.392,1.156,1.156,0,0,1,.161.383Z" transform="translate(11.357 21.119)" fill="#707070"></path>
  </g>
</svg>
