<?xml version="1.0" encoding="UTF-8"?>
<svg xmlns="http://www.w3.org/2000/svg" xmlns:xlink="http://www.w3.org/1999/xlink" width="50" height="50" viewBox="0 0 50 50">
  <defs>
    <clipPath id="clip-path">
      <path id="Path_4680" data-name="Path 4680" d="M0-682.665H50v50H0Z" transform="translate(0 682.665)" fill="#666"></path>
    </clipPath>
  </defs>
  <g id="svgexport-7_13_" data-name="svgexport-7 (13)" transform="translate(0 -0.002)">
    <g id="Group_2822" data-name="Group 2822" transform="translate(0 0.002)" clip-path="url(#clip-path)">
      <path id="Path_4661" data-name="Path 4661" d="M-12.648,6.6H-54.233a1.515,1.515,0,0,1-1.514-1.514V-8.486A1.515,1.515,0,0,1-54.233-10h2.569a.732.732,0,0,1,.732.732.732.732,0,0,1-.732.732h-2.569l-.049,13.623,41.634.049a.732.732,0,0,1,.732.732A.732.732,0,0,1-12.648,6.6Z" transform="translate(55.747 41.268)" fill="#666"></path>
      <path id="Path_4662" data-name="Path 4662" d="M31.718,6.6h-5.97a.732.732,0,0,1,0-1.465h5.97l.049-13.623-45.034-.049A.732.732,0,0,1-14-9.268.732.732,0,0,1-13.268-10H31.718a1.515,1.515,0,0,1,1.514,1.514V5.088A1.515,1.515,0,0,1,31.718,6.6Z" transform="translate(16.768 41.268)" fill="#666"></path>
      <path id="Path_4663" data-name="Path 4663" d="M-9.27-116.909a.731.731,0,0,1-.261-.048.732.732,0,0,1-.424-.945l3.216-8.444a.929.929,0,0,1,.863-.592.923.923,0,0,1,.858.574l3.195,8.465a.732.732,0,0,1-.427.944.732.732,0,0,1-.944-.427l-2.684-7.111-2.709,7.113A.733.733,0,0,1-9.27-116.909Z" transform="translate(31.993 161.493)" fill="#666"></path>
      <path id="Path_4664" data-name="Path 4664" d="M-4.5-8.535H-9.268A.732.732,0,0,1-10-9.268.732.732,0,0,1-9.268-10H-4.5a.732.732,0,0,1,.732.732A.732.732,0,0,1-4.5-8.535Z" transform="translate(32.994 51.016)" fill="#666"></path>
      <path id="Path_4665" data-name="Path 4665" d="M-9.268-116.91a.732.732,0,0,1-.732-.732v-8.549a.732.732,0,0,1,.514-.7.732.732,0,0,1,.821.283l4.648,6.73-.061-6.323a.732.732,0,0,1,.725-.739.732.732,0,0,1,.739.725l.08,8.276a.894.894,0,0,1-.6.9.851.851,0,0,1-.958-.362l-4.445-6.437v6.2A.732.732,0,0,1-9.268-116.91Z" transform="translate(41.3 161.494)" fill="#666"></path>
      <path id="Path_4666" data-name="Path 4666" d="M-9.268.03A.732.732,0,0,1-10-.7V-9.268A.732.732,0,0,1-9.268-10a.732.732,0,0,1,.732.732V-.7A.732.732,0,0,1-9.268.03Z" transform="translate(21.233 44.554)" fill="#666"></path>
      <path id="Path_4666-2" data-name="Path 4666" d="M-9.4-3.231a.556.556,0,0,1-.6-.494V-9.506A.556.556,0,0,1-9.4-10a.556.556,0,0,1,.6.494v5.781A.556.556,0,0,1-9.4-3.231Z" transform="translate(42.804 19.295)" fill="#666"></path>
      <path id="Path_4666-3" data-name="Path 4666" d="M-9.4-3.231a.556.556,0,0,1-.6-.494V-9.506A.556.556,0,0,1-9.4-10a.556.556,0,0,1,.6.494v5.781A.556.556,0,0,1-9.4-3.231Z" transform="translate(52.371 19.45)" fill="#666"></path>
      <path id="Path_4666-4" data-name="Path 4666" d="M-9.4-3.231a.556.556,0,0,1-.6-.494V-9.506A.556.556,0,0,1-9.4-10a.556.556,0,0,1,.6.494v5.781A.556.556,0,0,1-9.4-3.231Z" transform="translate(47.564 19.45)" fill="#666"></path>
      <path id="Path_4666-5" data-name="Path 4666" d="M-9.4-4.96c-.332,0-.6-.165-.6-.368v-4.3c0-.2.269-.368.6-.368s.6.165.6.368v4.3C-8.8-5.125-9.066-4.96-9.4-4.96Z" transform="translate(56.47 12.866) rotate(-45)" fill="#666"></path>
      <path id="Path_4666-6" data-name="Path 4666" d="M-9.4-4.96c-.332,0-.6-.165-.6-.368v-4.3c0-.2.269-.368.6-.368s.6.165.6.368v4.3C-8.8-5.125-9.066-4.96-9.4-4.96Z" transform="translate(51.706 12.668) rotate(-45)" fill="#666"></path>
      <path id="Path_4666-7" data-name="Path 4666" d="M-9.4-4.96c-.332,0-.6-.165-.6-.368v-4.3c0-.2.269-.368.6-.368s.6.165.6.368v4.3C-8.8-5.125-9.066-4.96-9.4-4.96Z" transform="translate(38.464 -0.278) rotate(-135)" fill="#666"></path>
      <path id="Path_4667" data-name="Path 4667" d="M-70.143-36.909h2.488a2.706,2.706,0,0,1,2.7,2.7,2.706,2.706,0,0,1-2.7,2.7c-.539,0-2.485.009-2.485.009a.732.732,0,0,1-.52-.213.732.732,0,0,1-.216-.519v-3.95A.732.732,0,0,1-70.143-36.909Zm.732,3.947c.612,0,1.434-.006,1.755-.006a1.24,1.24,0,0,0,1.238-1.238,1.24,1.24,0,0,0-1.238-1.238h-1.755Z" transform="translate(85.287 71.463)" fill="#666"></path>
      <path id="Path_4667-2" data-name="Path 4667" d="M-70.325-36.909h1.873a2.037,2.037,0,0,1,2.035,2.035,2.037,2.037,0,0,1-2.035,2.035c-.406,0-1.87.007-1.87.007a.551.551,0,0,1-.391-.161.551.551,0,0,1-.162-.391v-2.974A.551.551,0,0,1-70.325-36.909Zm.551,2.971,1.321,0a.933.933,0,0,0,.932-.932.933.933,0,0,0-.932-.932h-1.321Z" transform="translate(113.247 46.359)" fill="#666"></path>
      <path id="Path_4667-3" data-name="Path 4667" d="M-70.325-36.909h1.873a2.037,2.037,0,0,1,2.035,2.035,2.037,2.037,0,0,1-2.035,2.035c-.406,0-1.87.007-1.87.007a.551.551,0,0,1-.391-.161.551.551,0,0,1-.162-.391v-2.974A.551.551,0,0,1-70.325-36.909Zm.551,2.971,1.321,0a.933.933,0,0,0,.932-.932.933.933,0,0,0-.932-.932h-1.321Z" transform="translate(103.68 46.204)" fill="#666"></path>
      <path id="Path_4668" data-name="Path 4668" d="M-80.645-41.477h2.922a3.041,3.041,0,0,1,3.038,3.038A3.041,3.041,0,0,1-77.722-35.4c-.631,0-2.919.01-2.919.01a.732.732,0,0,1-.52-.213.732.732,0,0,1-.216-.519v-4.621A.732.732,0,0,1-80.645-41.477Zm.732,4.618c.728,0,1.791-.007,2.19-.007a1.575,1.575,0,0,0,1.573-1.573,1.575,1.575,0,0,0-1.573-1.573h-2.19Z" transform="translate(95.789 79.975)" fill="#666"></path>
      <path id="Path_4669" data-name="Path 4669" d="M-6.837,4.017l-.065,0a.732.732,0,0,1-.666-.793c.058-.668.088-1.341.088-2A22.049,22.049,0,0,0-9.921-8.935.732.732,0,0,1-9.6-9.921a.732.732,0,0,1,.986.318,23.5,23.5,0,0,1,2.6,10.821c0,.7-.031,1.42-.094,2.13A.733.733,0,0,1-6.837,4.017Z" transform="translate(54.766 28.717)" fill="#666"></path>
      <path id="Path_4670" data-name="Path 4670" d="M-9.269-40.687a.732.732,0,0,1-.652-.4.732.732,0,0,1,.316-.986A23.813,23.813,0,0,1,1.253-44.693a23.764,23.764,0,0,1,6.832,1,.732.732,0,0,1,.491.912.732.732,0,0,1-.912.491,22.3,22.3,0,0,0-6.412-.936,22.036,22.036,0,0,0-10.187,2.46A.729.729,0,0,1-9.269-40.687Z" transform="translate(23.747 50.877)" fill="#666"></path>
      <path id="Path_4671" data-name="Path 4671" d="M-10.418-225.4a.732.732,0,0,1-.729-.668c-.062-.705-.093-1.422-.094-2.13a23.734,23.734,0,0,1,5.8-15.552.732.732,0,0,1,1.033-.073.732.732,0,0,1,.073,1.033,22.269,22.269,0,0,0-5.442,14.592c0,.665.03,1.339.088,2a.732.732,0,0,1-.666.794Z" transform="translate(12.489 258.129)" fill="#666"></path>
      <path id="Path_4675" data-name="Path 4675" d="M-248.52-134.173a9.838,9.838,0,0,1,9.827,9.827,9.838,9.838,0,0,1-9.827,9.827,9.838,9.838,0,0,1-9.827-9.827A9.838,9.838,0,0,1-248.52-134.173Zm0,18.19a8.372,8.372,0,0,0,8.362-8.362,8.372,8.372,0,0,0-8.362-8.362,8.372,8.372,0,0,0-8.362,8.362A8.372,8.372,0,0,0-248.52-115.983Z" transform="translate(287.767 137.187)" fill="#666"></path>
      <path id="Path_4676" data-name="Path 4676" d="M-28.937,15.716a.73.73,0,0,1-.269-.051.732.732,0,0,1-.412-.95c1.806-4.568,1.208-5.768.867-6.072-.415-.371-1.273-.189-2.267.021-1.4.3-3.136.663-4.633-.436-2.041-1.5-2.437-4.892-1.633-7.176A5.722,5.722,0,0,1-35.444-1.5a4.32,4.32,0,0,0,1.1-1.283c.7-1.395.3-3.457-1.209-6.129a.732.732,0,0,1,.279-1,.732.732,0,0,1,1,.279c1.784,3.168,2.189,5.623,1.241,7.507A5.7,5.7,0,0,1-34.466-.407,4.314,4.314,0,0,0-35.9,1.537C-36.522,3.3-36.215,6-34.783,7.047c.968.711,2.18.455,3.463.184,1.267-.268,2.577-.545,3.545.319,1.294,1.154,1.141,3.6-.48,7.7A.733.733,0,0,1-28.937,15.716Z" transform="translate(53.755 17.017)" fill="#666"></path>
      <path id="Path_4677" data-name="Path 4677" d="M-5.365,7.81a.733.733,0,0,1-.7-.521,17.865,17.865,0,0,1-.654-3.222,16.12,16.12,0,0,1-.094-1.678c-.007-.557-.013-.683-.16-.922C-7.434.713-8.35.588-9.8.447-11.3.3-13,.138-14.23-1.229c-1.171-1.3-1.211-2.875-1.258-4.7a12.444,12.444,0,0,1,.423-3.53.732.732,0,0,1,.9-.519.732.732,0,0,1,.519.9,10.98,10.98,0,0,0-.374,3.115c.042,1.661.073,2.86.881,3.757.851.944,2.127,1.068,3.478,1.2,1.511.146,3.074.3,3.939,1.712a2.825,2.825,0,0,1,.375,1.669,14.626,14.626,0,0,0,.086,1.539,16.4,16.4,0,0,0,.6,2.957.732.732,0,0,1-.49.913A.733.733,0,0,1-5.365,7.81Z" transform="translate(44.952 24.923)" fill="#666"></path>
      <path id="Path_4678" data-name="Path 4678" d="M-76.587-199.407a.93.93,0,0,1-.8-.464l-4.272-7.4a5.8,5.8,0,0,1,0-5.861,5.8,5.8,0,0,1,5.076-2.93,5.8,5.8,0,0,1,5.076,2.93,5.8,5.8,0,0,1,0,5.861l-4.272,7.4A.93.93,0,0,1-76.587-199.407Zm0-15.19a4.351,4.351,0,0,0-3.807,2.2,4.351,4.351,0,0,0,0,4.4l3.807,6.594L-72.78-208a4.351,4.351,0,0,0,0-4.4A4.351,4.351,0,0,0-76.587-214.6Z" transform="translate(86.145 218.192)" fill="#666"></path>
      <path id="Path_4679" data-name="Path 4679" d="M-47.467-25.458a2.187,2.187,0,0,1-2.184-2.184,2.187,2.187,0,0,1,2.184-2.185,2.187,2.187,0,0,1,2.185,2.185A2.187,2.187,0,0,1-47.467-25.458Zm0-2.9a.72.72,0,0,0-.72.72.72.72,0,0,0,.72.72.72.72,0,0,0,.72-.72A.721.721,0,0,0-47.467-28.362Z" transform="translate(57.025 35.296)" fill="#666"></path>
    </g>
  </g>
</svg>
