<?xml version="1.0" encoding="UTF-8"?>
<svg xmlns="http://www.w3.org/2000/svg" width="50.633" height="49.98" viewBox="0 0 50.633 49.98">
  <path id="Path_4718" data-name="Path 4718" d="M25.683.2,25.334.02,24.985.2,15.071,5.414l-.281.148-.09.3.719.212L14.7,5.866h0v0l0,.012-.013.044c-.011.038-.027.094-.047.167-.04.145-.1.355-.163.621-.1.409-.231.95-.364,1.591H.018V41.538H18.954V48.5H3.838V50H46.83V48.5H31.714V41.538H50.65V8.306H36.558c-.133-.64-.261-1.182-.364-1.591-.067-.266-.123-.477-.163-.621-.02-.072-.036-.128-.047-.167l-.013-.044,0-.012v0h0l-.719.212.719-.212-.09-.3L35.6,5.414ZM15.929,7.081c.05-.2.093-.362.127-.489l9.278-4.877,9.278,4.877c.034.127.077.291.127.489.128.51.3,1.241.468,2.117a32.922,32.922,0,0,1,.636,6.152A12.536,12.536,0,0,1,34.6,21.343c-1.1,1.948-3.442,3.819-5.611,5.237-1.068.7-2.065,1.268-2.794,1.663-.358.194-.652.345-.856.449-.2-.1-.5-.255-.856-.449-.73-.395-1.726-.964-2.794-1.663-2.169-1.418-4.511-3.289-5.611-5.237a12.536,12.536,0,0,1-1.248-5.993A32.922,32.922,0,0,1,15.461,9.2C15.63,8.321,15.8,7.591,15.929,7.081Zm9.083,23.125.323-.677-.322.677.322.154.322-.154-.322-.677.323.677h0l0,0,.018-.009.067-.033L26,30.035c.216-.109.526-.269.9-.474.756-.409,1.79-1,2.9-1.726C32,26.4,34.611,24.367,35.9,22.08a13.986,13.986,0,0,0,1.442-6.725,33.111,33.111,0,0,0-.5-5.549H49.15V35.193H1.518V9.806H13.826a33.111,33.111,0,0,0-.5,5.549,13.987,13.987,0,0,0,1.442,6.725c1.291,2.287,3.906,4.324,6.1,5.755,1.111.726,2.145,1.317,2.9,1.726.378.2.688.365.9.474l.251.125.067.033L25,30.2l.005,0h0ZM1.518,36.693v3.344H49.15V36.693Zm18.937,4.844v6.689h9.76V41.538ZM24.822,6.5V3.426h1.5V6.5Zm-1.476,13.58V17.063L23,16.842a4.368,4.368,0,1,1,4.672,0l-.348.221v3.014Zm4.785,1.5h.691V17.87a5.868,5.868,0,1,0-6.976,0v3.708h.691v2.047h5.594V21.577Zm-4.094,0v.547h2.594v-.547ZM32.049,5.923,29.878,8.095l1.061,1.061L33.11,6.984ZM20.79,8.095,18.618,5.923,17.558,6.984l2.171,2.171Zm14.268,4.032H31.987v1.5h3.071Zm-16.378,0H15.609v1.5H18.68Z" transform="translate(-0.018 -0.02)" fill="#666" fill-rule="evenodd"></path>
</svg>
