<?xml version="1.0" encoding="UTF-8"?>
<svg xmlns="http://www.w3.org/2000/svg" xmlns:xlink="http://www.w3.org/1999/xlink" width="52" height="52" viewBox="0 0 52 52">
  <defs>
    <clipPath id="clip-path">
      <rect id="Rectangle_4504" data-name="Rectangle 4504" width="52" height="52" transform="translate(-0.182 -0.182)" fill="#666" stroke="#666" stroke-width="0.5"></rect>
    </clipPath>
  </defs>
  <g id="Group_2826" data-name="Group 2826" transform="translate(0.216 0.216)">
    <g id="Group_2825" data-name="Group 2825" transform="translate(-0.033 -0.033)" clip-path="url(#clip-path)">
      <path id="Path_4691" data-name="Path 4691" d="M103.887,136.754a.829.829,0,0,1-.786-1.091l7.322-21.966a.828.828,0,0,1,1.572.524l-7.322,21.966a.827.827,0,0,1-.785.567Zm12.447-7.877a3.935,3.935,0,1,1,3.935-3.935,3.939,3.939,0,0,1-3.935,3.935m0-6.213a2.278,2.278,0,1,0,2.278,2.278,2.281,2.281,0,0,0-2.278-2.278m-17.573,6.213a3.935,3.935,0,1,1,3.935-3.935,3.939,3.939,0,0,1-3.935,3.935m0-6.213a2.278,2.278,0,1,0,2.278,2.278,2.281,2.281,0,0,0-2.278-2.278" transform="translate(-84.973 -101.382)" fill="#666" stroke="#666" stroke-width="0.5"></path>
      <path id="Path_4692" data-name="Path 4692" d="M23.816,51.567a4.976,4.976,0,0,1-4.97-4.97V45.558l-.349-.212a4.956,4.956,0,0,1-.935-.733L1.453,28.505a4.977,4.977,0,0,1,0-7.029L20.49,2.439a.833.833,0,0,1,.469-.234L36.335.008A.825.825,0,0,1,36.451,0a.836.836,0,0,1,.586.243L40.845,4.05,44.652.243a.828.828,0,0,1,1.172,1.171L42.017,5.221l3.807,3.807a.833.833,0,0,1,.234.7L45.8,11.508l5.6,7.462a.834.834,0,0,1,.166.5V46.6a4.976,4.976,0,0,1-4.97,4.97ZM43.862,25.108a.833.833,0,0,1-.234.469L24.59,44.613a4.946,4.946,0,0,1-3.375,1.45l-.758.021.056.757a3.325,3.325,0,0,0,3.3,3.069H46.6A3.317,3.317,0,0,0,49.91,46.6V19.743l-4.437-5.916Zm-22.4-21.3L2.625,22.648a3.317,3.317,0,0,0,0,4.686L18.733,43.442a3.314,3.314,0,0,0,4.686,0L42.261,24.6l2.1-14.693L40.845,6.393,37.623,9.615l1.611,1.611A.828.828,0,1,1,38.063,12.4L33.67,8a.828.828,0,0,1,1.172-1.172l1.611,1.611,3.222-3.222L36.159,1.707Z" transform="translate(0.035 0.035)" fill="#666" stroke="#666" stroke-width="0.5"></path>
    </g>
  </g>
</svg>
