<?xml version="1.0" encoding="UTF-8"?>
<svg xmlns="http://www.w3.org/2000/svg" width="50" height="50" viewBox="0 0 50 50">
  <g id="svgexport-7_12_" data-name="svgexport-7 (12)" transform="translate(0 -0.001)">
    <path id="Path_4658" data-name="Path 4658" d="M68.441,100.238a3.393,3.393,0,0,1-3.39-3.39A.847.847,0,0,0,64.2,96H37.085a.847.847,0,0,0-.847.847,3.393,3.393,0,0,1-3.39,3.39.847.847,0,0,0-.847.847v6.78a.847.847,0,0,0,.847.847,3.393,3.393,0,0,1,3.39,3.39.847.847,0,0,0,.847.847H64.2a.847.847,0,0,0,.847-.847,3.393,3.393,0,0,1,3.39-3.39.847.847,0,0,0,.847-.847v-6.78A.847.847,0,0,0,68.441,100.238Zm-.847,6.85a5.1,5.1,0,0,0-4.167,4.167H37.862a5.1,5.1,0,0,0-4.167-4.167v-5.226A5.1,5.1,0,0,0,37.862,97.7H63.427a5.1,5.1,0,0,0,4.167,4.167Z" transform="translate(-28.61 -86.085)" fill="#666"></path>
    <path id="Path_4659" data-name="Path 4659" d="M172.237,136a4.237,4.237,0,1,0,4.237,4.237A4.242,4.242,0,0,0,172.237,136Zm0,6.78a2.542,2.542,0,1,1,2.542-2.542A2.546,2.546,0,0,1,172.237,142.781Z" transform="translate(-150.559 -121.881)" fill="#666"></path>
    <path id="Path_4660" data-name="Path 4660" d="M49.166,0H7.5a.833.833,0,0,0-.833.833v2.5h-2.5a.833.833,0,0,0-.833.833v2.5H.833A.833.833,0,0,0,0,7.5V29.168A.833.833,0,0,0,.833,30H42.5a.833.833,0,0,0,.833-.833v-2.5h2.5a.833.833,0,0,0,.833-.833v-2.5h2.5A.833.833,0,0,0,50,22.5V.834A.833.833,0,0,0,49.166,0Zm-7.5,25.833v2.5h-40v-20h40ZM45,25H43.333V7.5a.833.833,0,0,0-.833-.833H5V5H45Zm3.333-3.333H46.666V4.168a.833.833,0,0,0-.833-.833H8.333V1.668h40Zm1.333,18.5-10-7.5a.833.833,0,0,0-1.333.667v3.333H25a.833.833,0,0,0-.833.833v6.667A.833.833,0,0,0,25,45H38.333v4.167a.833.833,0,0,0,.48.754.821.821,0,0,0,.353.079.84.84,0,0,0,.534-.192l10-8.333a.833.833,0,0,0-.034-1.307ZM40,47.389V44.168a.833.833,0,0,0-.833-.833H25.833v-5H39.166A.833.833,0,0,0,40,37.5V35l7.824,5.868ZM21.667,36.668H18.333a.833.833,0,0,0-.833.833v6.667a.833.833,0,0,0,.833.833h3.333a.833.833,0,0,0,.833-.833V37.5A.833.833,0,0,0,21.667,36.668Zm-.833,6.667H19.167v-5h1.667Zm-7.5-6.667H10a.833.833,0,0,0-.833.833v6.667A.833.833,0,0,0,10,45h3.333a.833.833,0,0,0,.833-.833V37.5A.833.833,0,0,0,13.333,36.668ZM12.5,43.334H10.833v-5H12.5ZM4.167,36.668H.833A.833.833,0,0,0,0,37.5v6.667A.833.833,0,0,0,.833,45H4.167A.833.833,0,0,0,5,44.168V37.5A.833.833,0,0,0,4.167,36.668Zm-.833,6.667H1.667v-5H3.333Z" fill="#666"></path>
  </g>
</svg>
