<?xml version="1.0" encoding="UTF-8"?>
<svg xmlns="http://www.w3.org/2000/svg" width="48.2" height="50.2" viewBox="0 0 48.2 50.2">
  <g id="Group_2698" data-name="Group 2698" transform="translate(-1183.9 -9480.9)">
    <g id="svgexport-6_6_" data-name="svgexport-6 (6)" transform="translate(1184 9481)">
      <g id="Group_2604" data-name="Group 2604" transform="translate(0 0)">
        <path id="Path_4408" data-name="Path 4408" d="M63.693,24.556h3.721a1.482,1.482,0,0,0,1.525-1.43V19.638a1.482,1.482,0,0,0-1.525-1.43H63.693a1.482,1.482,0,0,0-1.525,1.43v3.488A1.482,1.482,0,0,0,63.693,24.556Zm.037-4.883h3.646v3.418H63.73Zm-.037,14.16h3.721a1.482,1.482,0,0,0,1.525-1.43V28.916a1.482,1.482,0,0,0-1.525-1.43H63.693a1.482,1.482,0,0,0-1.525,1.43V32.4A1.482,1.482,0,0,0,63.693,33.833Zm.037-4.883h3.646v3.418H63.73ZM53.075,24.556H56.8a1.482,1.482,0,0,0,1.525-1.43V19.638a1.482,1.482,0,0,0-1.525-1.43H53.075a1.482,1.482,0,0,0-1.525,1.43v3.488A1.482,1.482,0,0,0,53.075,24.556Zm.037-4.883h3.646v3.418H53.112ZM35.561,36.328H31.84a1.482,1.482,0,0,0-1.525,1.43v3.488a1.482,1.482,0,0,0,1.525,1.43h3.721a1.482,1.482,0,0,0,1.525-1.43V37.758A1.482,1.482,0,0,0,35.561,36.328Zm-.037,4.883H31.878V37.793h3.646Zm.037-23H31.84a1.482,1.482,0,0,0-1.525,1.43v3.488a1.482,1.482,0,0,0,1.525,1.43h3.721a1.482,1.482,0,0,0,1.525-1.43V19.638A1.482,1.482,0,0,0,35.561,18.208Zm-.037,4.883H31.878V19.673h3.646ZM53.075,33.616H56.8a1.482,1.482,0,0,0,1.525-1.43V28.7a1.482,1.482,0,0,0-1.525-1.43H53.075A1.482,1.482,0,0,0,51.55,28.7v3.488A1.482,1.482,0,0,0,53.075,33.616Zm.037-4.883h3.646v3.418H53.112Zm16.6-25.386H66.374V2.227A2.308,2.308,0,0,0,64,0h-.359a2.308,2.308,0,0,0-2.376,2.227v1.12H37.99V2.227A2.308,2.308,0,0,0,35.614,0h-.359a2.308,2.308,0,0,0-2.376,2.227v1.12h-3.34a3.8,3.8,0,0,0-3.912,3.667V46.338A3.8,3.8,0,0,0,29.534,50H69.72a3.8,3.8,0,0,0,3.907-3.662V7.014a3.8,3.8,0,0,0-3.912-3.667Zm-6.889-1.12a.79.79,0,0,1,.813-.762H64a.79.79,0,0,1,.813.762v1.12H62.826Zm-28.384,0a.79.79,0,0,1,.813-.762h.359a.79.79,0,0,1,.813.762v1.12H34.442V2.227ZM72.064,46.338a2.277,2.277,0,0,1-2.344,2.2H29.534a2.277,2.277,0,0,1-2.344-2.2v0a4.064,4.064,0,0,0,2.349.737H61.218A4.021,4.021,0,0,0,63.984,46l8.08-7.574Zm-8.878-1.666a2.947,2.947,0,0,0,.095-.739V39.044a1.733,1.733,0,0,1,1.784-1.672H70.28a3.554,3.554,0,0,0,.788-.089Zm8.878-30.858H38.771a.734.734,0,1,0,0,1.465H72.064V34.236a1.733,1.733,0,0,1-1.784,1.672H65.065a3.25,3.25,0,0,0-3.346,3.137v4.889a1.733,1.733,0,0,1-1.784,1.672h-30.4a2.282,2.282,0,0,1-2.349-2.2V15.279h8.456a.734.734,0,1,0,0-1.465H27.19v-6.8a2.282,2.282,0,0,1,2.349-2.2h3.341V6.965a2.308,2.308,0,0,0,2.376,2.227.734.734,0,1,0,0-1.465.79.79,0,0,1-.813-.762V4.812H61.264V6.965A2.308,2.308,0,0,0,63.64,9.193a.734.734,0,1,0,0-1.465.79.79,0,0,1-.813-.762V4.812h6.889a2.282,2.282,0,0,1,2.349,2.2Zm-36.5,13.454H31.84a1.482,1.482,0,0,0-1.525,1.43v3.488a1.482,1.482,0,0,0,1.525,1.43h3.721a1.482,1.482,0,0,0,1.525-1.43V28.7A1.482,1.482,0,0,0,35.561,27.268Zm-.037,4.883H31.878V28.733h3.646Zm6.934-7.6h3.721a1.482,1.482,0,0,0,1.525-1.43V19.638a1.482,1.482,0,0,0-1.525-1.43H42.458a1.482,1.482,0,0,0-1.525,1.43v3.488A1.482,1.482,0,0,0,42.458,24.556Zm.037-4.883h3.646v3.418H42.5ZM53.112,41.211a.784.784,0,0,0-1.562.035,1.482,1.482,0,0,0,1.525,1.43H56.8a1.482,1.482,0,0,0,1.525-1.43V37.758a1.482,1.482,0,0,0-1.525-1.43H53.075a1.482,1.482,0,0,0-1.525,1.43v1.006a.783.783,0,0,0,1.563,0v-.971h3.646v3.418Zm-10.654-7.6h3.721a1.482,1.482,0,0,0,1.525-1.43V28.7a1.482,1.482,0,0,0-1.525-1.43H42.458a1.482,1.482,0,0,0-1.525,1.43v3.488A1.482,1.482,0,0,0,42.458,33.616Zm.037-4.883h3.646v3.418H42.5Zm-.037,13.943h3.721a1.482,1.482,0,0,0,1.525-1.43V37.758a1.482,1.482,0,0,0-1.525-1.43H42.458a1.482,1.482,0,0,0-1.525,1.43v3.488A1.482,1.482,0,0,0,42.458,42.676Zm.037-4.883h3.646v3.418H42.5Z" transform="translate(-25.627 0)" fill="#666" stroke="#666" stroke-width="0.2"></path>
      </g>
    </g>
  </g>
</svg>
